<mxfile host="app.diagrams.net" agent="Mozilla/5.0 (X11; Ubuntu; Linux x86_64; rv:136.0) Gecko/20100101 Firefox/136.0" version="26.2.3">
  <diagram name="Page-1" id="4z4QHkoMoS0GszFpfDla">
    <mxGraphModel dx="1358" dy="763" grid="1" gridSize="10" guides="1" tooltips="1" connect="1" arrows="1" fold="1" page="1" pageScale="1" pageWidth="850" pageHeight="1100" math="0" shadow="0">
      <root>
        <mxCell id="0" />
        <mxCell id="1" parent="0" />
        <mxCell id="fFcKl7z58cjcdKlxAfxv-1" value="" style="rounded=1;whiteSpace=wrap;html=1;dashed=1;" vertex="1" parent="1">
          <mxGeometry x="40" y="120" width="770" height="440" as="geometry" />
        </mxCell>
        <mxCell id="fFcKl7z58cjcdKlxAfxv-2" value="MySQL" style="rounded=1;whiteSpace=wrap;html=1;fillColor=#d5e8d4;strokeColor=#82b366;" vertex="1" parent="1">
          <mxGeometry x="80" y="150" width="110" height="100" as="geometry" />
        </mxCell>
        <mxCell id="fFcKl7z58cjcdKlxAfxv-3" value="MySQL" style="rounded=1;whiteSpace=wrap;html=1;fillColor=#f8cecc;strokeColor=#b85450;" vertex="1" parent="1">
          <mxGeometry x="80" y="410" width="110" height="100" as="geometry" />
        </mxCell>
        <mxCell id="fFcKl7z58cjcdKlxAfxv-4" value="" style="rounded=1;whiteSpace=wrap;html=1;fillColor=#fff2cc;strokeColor=#d6b656;" vertex="1" parent="1">
          <mxGeometry x="480" y="200" width="280" height="260" as="geometry" />
        </mxCell>
        <mxCell id="fFcKl7z58cjcdKlxAfxv-5" value="" style="endArrow=classic;html=1;rounded=0;exitX=1;exitY=0.5;exitDx=0;exitDy=0;entryX=0;entryY=0.5;entryDx=0;entryDy=0;" edge="1" parent="1" source="fFcKl7z58cjcdKlxAfxv-2" target="fFcKl7z58cjcdKlxAfxv-4">
          <mxGeometry width="50" height="50" relative="1" as="geometry">
            <mxPoint x="290" y="420" as="sourcePoint" />
            <mxPoint x="340" y="370" as="targetPoint" />
          </mxGeometry>
        </mxCell>
        <mxCell id="fFcKl7z58cjcdKlxAfxv-6" value="" style="endArrow=classic;html=1;rounded=0;exitX=1;exitY=0.5;exitDx=0;exitDy=0;entryX=0;entryY=0.5;entryDx=0;entryDy=0;" edge="1" parent="1" source="fFcKl7z58cjcdKlxAfxv-3" target="fFcKl7z58cjcdKlxAfxv-4">
          <mxGeometry width="50" height="50" relative="1" as="geometry">
            <mxPoint x="290" y="420" as="sourcePoint" />
            <mxPoint x="340" y="370" as="targetPoint" />
          </mxGeometry>
        </mxCell>
        <mxCell id="fFcKl7z58cjcdKlxAfxv-8" value="" style="sketch=0;aspect=fixed;pointerEvents=1;shadow=0;dashed=0;html=1;strokeColor=none;labelPosition=center;verticalLabelPosition=bottom;verticalAlign=top;align=center;fillColor=#00188D;shape=mxgraph.mscae.enterprise.web_server" vertex="1" parent="1">
          <mxGeometry x="580" y="237.89" width="123.2" height="162.11" as="geometry" />
        </mxCell>
        <mxCell id="fFcKl7z58cjcdKlxAfxv-10" value="1, 3, 5, ..." style="text;html=1;align=center;verticalAlign=middle;whiteSpace=wrap;rounded=0;" vertex="1" parent="1">
          <mxGeometry x="270" y="207.89" width="60" height="30" as="geometry" />
        </mxCell>
        <mxCell id="fFcKl7z58cjcdKlxAfxv-11" value="2, 4, 6, ..." style="text;html=1;align=center;verticalAlign=middle;whiteSpace=wrap;rounded=0;" vertex="1" parent="1">
          <mxGeometry x="270" y="370" width="60" height="30" as="geometry" />
        </mxCell>
      </root>
    </mxGraphModel>
  </diagram>
</mxfile>
